Coordinates
version=1
nRows=21
nColumns=12
inDegrees=yes

Units are S.I. units (second, meters, Newtons, ...)
Angles are in degrees

endheader
time	SC_y	SC_z	SC_x	AC_y	AC_z	AC_x	GH_y	GH_z	GH_yy	EL_x	PS_y
       0.0              -41.22          2.574          54.04          31.51          7.197         -2.637          21.36          15.79         -16.06          102.4          57.88
   0.01831              -41.22          2.576          54.04          31.51          7.195          -2.64          21.39          15.79         -16.04          102.4          57.88
   0.03661              -41.22          2.578          54.05          31.51          7.193         -2.643          21.41          15.79         -16.03          102.4          57.88
   0.05492              -41.22           2.58          54.05          31.51          7.191         -2.645          21.44          15.79         -16.01          102.4          57.88
   0.07323              -41.23          2.583          54.06          31.51           7.19         -2.648          21.46          15.79         -15.98          102.4          57.88
   0.09153              -41.23          2.585          54.06          31.51          7.187         -2.652          21.49          15.78         -15.96          102.4          57.88
    0.1098              -41.23          2.588          54.07          31.51          7.185         -2.655          21.52          15.78         -15.94          102.4          57.88
    0.1281              -41.23          2.591          54.07          31.51          7.183         -2.659          21.56          15.78         -15.91          102.4          57.88
    0.1465              -41.23          2.594          54.08          31.51           7.18         -2.662          21.59          15.78         -15.88          102.4          57.89
    0.1648              -41.23          2.597          54.08          31.51          7.178         -2.667          21.63          15.78         -15.85          102.4          57.89
    0.1831              -41.23          2.601          54.09          31.51          7.175         -2.671          21.67          15.78         -15.82          102.4          57.89
    0.2014              -41.23          2.604           54.1          31.51          7.172         -2.676          21.72          15.77         -15.79          102.4          57.89
    0.2197              -41.23          2.608          54.11          31.51          7.168         -2.681          21.77          15.77         -15.75          102.3          57.89
     0.238              -41.23          2.613          54.12          31.51          7.165         -2.687          21.82          15.77         -15.71          102.3          57.89
    0.2563              -41.23          2.618          54.13          31.51          7.161         -2.693          21.87          15.77         -15.67          102.3          57.89
    0.2746              -41.24          2.623          54.14          31.52          7.156           -2.7          21.93          15.77         -15.62          102.3          57.89
    0.2929              -41.24          2.628          54.15          31.52          7.152         -2.707           22.0          15.76         -15.57          102.3          57.89
    0.3112              -41.24          2.634          54.16          31.52          7.147         -2.715          22.07          15.76         -15.51          102.3          57.89
    0.3295              -41.24          2.641          54.17          31.52          7.141         -2.723          22.15          15.76         -15.45          102.3          57.89
    0.3478              -41.24          2.648          54.19          31.52          7.135         -2.732          22.24          15.75         -15.38          102.2          57.89
    0.3661              -41.25          2.656           54.2          31.52          7.128         -2.743          22.33          15.75         -15.31          102.2           57.9
